{"glyphs":{"0":{"ha":1230,"x_min":69,"x_max":1161,"o":"m 69 220 l 69 729 q 111 844 69 793 q 224 921 153 894 q 383 947 295 947 l 847 947 q 1006 921 935 947 q 1119 844 1078 894 q 1161 729 1161 793 l 1161 220 q 1146 144 1161 178 q 1105 86 1131 109 q 1045 45 1078 62 q 972 19 1012 28 q 895 4 932 9 q 818 0 857 0 l 406 0 q 315 6 359 0 q 225 29 270 13 q 146 70 180 45 q 91 133 112 94 q 69 220 69 172 m 546 282 q 560 234 546 250 q 611 218 574 218 l 619 218 q 671 233 656 218 q 686 282 686 248 l 686 669 q 671 719 686 704 q 619 733 655 733 l 611 733 q 561 717 576 733 q 546 669 546 701 l 546 282 z "},"1":{"ha":755,"x_min":79,"x_max":616,"o":"m 79 947 l 616 947 l 616 0 l 139 0 l 139 631 q 123 824 139 752 q 79 947 106 896 z "},"2":{"ha":1127,"x_min":90,"x_max":1059,"o":"m 90 631 l 90 947 l 725 947 q 976 892 894 947 q 1059 732 1059 836 l 1059 650 q 1051 585 1059 612 q 1025 536 1044 558 q 988 502 1006 515 q 937 467 971 488 l 608 262 l 1044 262 l 1044 0 l 92 0 l 92 296 q 115 383 92 348 q 186 447 138 418 l 539 663 q 566 693 566 678 q 518 715 566 715 l 449 715 q 319 711 359 715 q 232 691 279 707 q 90 631 184 675 z "},"3":{"ha":1118,"x_min":69,"x_max":1048,"o":"m 69 0 l 69 317 q 231 250 176 267 q 345 233 286 233 l 525 233 q 567 245 555 233 q 578 297 578 257 l 578 306 q 565 358 578 346 q 510 370 551 370 l 199 370 l 199 586 l 521 586 q 568 600 557 586 q 578 659 578 614 q 566 702 578 689 q 521 714 553 714 l 354 714 q 233 699 287 714 q 69 631 180 683 l 69 947 l 770 947 q 897 933 843 947 q 979 898 950 918 q 1024 847 1007 878 q 1044 793 1040 817 q 1048 741 1048 770 l 1048 648 q 1029 538 1048 576 q 953 473 1009 500 q 1028 410 1007 447 q 1048 298 1048 372 l 1048 193 q 981 47 1048 94 q 770 0 914 0 l 69 0 z "},"4":{"ha":1165,"x_min":41,"x_max":1137,"o":"m 41 158 l 41 412 l 534 947 l 1018 947 l 1018 390 l 1137 390 l 1137 161 l 1018 161 l 1018 0 l 534 0 l 534 158 l 41 158 m 371 390 l 534 390 l 534 583 l 371 390 z "},"5":{"ha":1137,"x_min":97,"x_max":1054,"o":"m 97 0 l 97 258 l 553 258 q 589 269 578 258 q 600 311 600 279 l 600 319 q 545 372 600 372 l 97 372 l 97 947 l 1034 947 l 1034 628 q 884 693 945 674 q 765 711 824 711 l 557 711 l 557 604 l 775 604 q 985 558 917 604 q 1054 418 1054 511 l 1054 201 q 1048 137 1054 165 q 1025 83 1042 110 q 978 38 1008 56 q 897 11 948 21 q 775 0 846 0 l 97 0 z "},"6":{"ha":1198,"x_min":69,"x_max":1129,"o":"m 69 168 l 69 779 q 76 824 69 802 q 100 869 83 846 q 143 909 117 892 q 211 937 170 926 q 304 947 252 947 l 1086 947 l 1086 629 q 943 694 996 677 q 832 711 890 711 l 619 711 q 570 697 591 711 q 549 656 549 684 l 549 581 l 895 581 q 1006 562 959 581 q 1079 512 1053 544 q 1117 441 1105 479 q 1129 358 1129 404 l 1129 197 q 1123 135 1129 162 q 1098 81 1116 108 q 1049 38 1080 55 q 968 11 1019 21 q 850 0 918 0 l 304 0 q 211 11 252 0 q 143 39 170 22 q 100 78 117 56 q 76 123 83 101 q 69 168 69 146 m 549 250 q 559 196 549 208 q 612 184 570 184 q 660 201 650 184 q 669 272 669 218 l 669 282 q 660 352 669 334 q 612 370 651 370 l 549 370 l 549 250 z "},"7":{"ha":1042,"x_min":56,"x_max":1035,"o":"m 56 635 l 56 947 l 1035 947 l 1035 734 l 595 0 l 69 0 l 511 721 l 298 721 q 187 701 242 721 q 56 635 132 680 z "},"8":{"ha":1155,"x_min":69,"x_max":1086,"o":"m 69 154 l 69 338 q 91 412 69 376 q 157 473 112 449 q 91 535 112 498 q 69 610 69 572 l 69 779 q 76 824 69 802 q 101 869 83 846 q 144 909 118 892 q 212 937 170 926 q 304 947 253 947 l 807 947 q 1021 899 955 947 q 1086 758 1086 850 l 1086 647 q 1067 539 1086 576 q 990 473 1048 501 q 1067 408 1048 446 q 1086 298 1086 370 l 1086 187 q 1072 111 1086 144 q 1033 57 1057 78 q 972 23 1008 36 q 896 5 936 10 q 807 0 856 0 l 304 0 q 193 16 241 0 q 119 56 144 31 q 81 105 94 81 q 69 154 69 130 m 509 269 q 519 198 509 212 q 574 184 530 184 q 620 201 611 184 q 629 272 629 218 l 629 289 q 619 353 629 337 q 574 370 609 370 q 520 354 531 370 q 509 289 509 339 l 509 269 m 509 654 q 520 595 509 606 q 574 583 531 583 q 620 597 610 583 q 629 659 629 612 l 629 688 q 619 749 629 736 q 572 762 609 762 q 520 750 531 762 q 509 693 509 738 l 509 654 z "},"9":{"ha":1200,"x_min":69,"x_max":1131,"o":"m 69 587 l 69 715 q 134 886 69 825 q 349 947 199 947 l 896 947 q 1007 931 960 947 q 1081 889 1055 915 q 1118 834 1106 863 q 1131 778 1131 806 l 1131 167 q 1123 122 1131 144 q 1099 78 1116 100 q 1056 38 1082 55 q 989 11 1030 22 q 896 0 947 0 l 114 0 l 114 315 q 258 251 205 268 q 368 233 311 233 l 578 233 q 631 248 611 233 q 652 289 652 262 l 652 364 l 306 364 q 196 382 243 364 q 122 431 149 399 q 82 502 95 463 q 69 587 69 541 m 530 656 q 541 592 530 608 q 586 576 551 576 l 652 576 l 652 694 q 640 749 652 736 q 586 761 629 761 q 540 744 549 761 q 530 675 530 727 l 530 656 z "},"\u0000":{"ha":0,"x_min":0,"x_max":0,"o":""},"\u001d":{"ha":0,"x_min":0,"x_max":0,"o":""}," ":{"ha":395,"x_min":0,"x_max":0,"o":""},"!":{"ha":697,"x_min":52,"x_max":587,"o":"m 52 947 l 586 947 l 586 296 l 111 296 l 111 628 q 52 947 111 840 m 113 0 l 113 216 l 587 216 l 587 0 l 113 0 z "},"\"":{"ha":407,"x_min":138,"x_max":271,"o":"m 138 551 l 138 675 l 271 675 l 271 551 l 138 551 z "},"#":{"ha":407,"x_min":138,"x_max":271,"o":"m 138 551 l 138 675 l 271 675 l 271 551 l 138 551 z "},"$":{"ha":1145,"x_min":77,"x_max":1069,"o":"m 77 0 l 77 321 q 232 252 164 267 q 403 236 299 236 l 504 236 q 555 248 542 236 q 568 288 568 259 q 555 325 568 315 q 493 347 542 335 l 283 396 q 212 422 245 406 q 149 463 178 438 q 102 527 119 488 q 85 612 85 565 l 85 700 q 153 878 85 808 q 345 947 221 947 l 424 947 l 424 1063 l 583 1063 l 583 947 l 633 947 l 633 1063 l 791 1063 l 791 947 l 1054 947 l 1054 627 q 893 695 962 680 q 720 711 825 711 l 621 711 q 572 702 585 711 q 559 663 559 692 q 575 623 559 634 q 643 603 591 611 l 907 558 q 1069 351 1069 529 l 1069 218 q 1054 134 1069 172 q 1013 71 1038 96 q 953 30 987 47 q 885 7 920 14 q 815 0 850 0 l 791 0 l 791 -90 l 633 -90 l 633 0 l 583 0 l 583 -90 l 424 -90 l 424 0 l 77 0 z "},"%":{"ha":1103,"x_min":70,"x_max":1033,"o":"m 71 648 l 71 859 q 106 921 70 897 q 199 947 143 945 l 387 947 q 479 921 442 945 q 515 859 515 897 l 515 648 q 487 590 515 610 q 418 564 459 570 q 387 559 404 559 l 199 559 q 168 564 182 559 q 98 590 126 570 q 71 648 70 610 m 150 0 l 754 947 l 958 947 l 371 0 l 150 0 m 264 673 q 271 654 264 659 q 294 648 278 648 l 292 648 q 314 654 308 648 q 321 673 321 659 l 321 833 q 314 854 321 849 q 292 860 308 860 l 294 860 q 271 854 278 860 q 264 833 264 848 l 264 673 m 587 89 l 587 298 q 624 361 587 338 q 715 387 661 385 l 904 387 q 997 361 960 385 q 1032 298 1033 338 l 1032 89 q 1005 31 1033 51 q 935 4 977 10 q 904 0 933 3 l 715 0 q 685 4 686 3 q 616 31 644 10 q 587 89 587 51 m 782 115 q 788 94 782 100 q 811 89 795 89 l 808 89 q 832 95 825 89 q 839 115 839 100 l 839 273 q 832 294 839 288 q 808 300 825 300 l 811 300 q 788 294 795 300 q 782 273 782 289 l 782 115 z "},"&":{"ha":1250,"x_min":69,"x_max":1208,"o":"m 69 225 l 69 310 q 95 409 69 372 q 191 485 121 446 q 252 518 206 492 l 187 555 l 182 559 q 122 617 138 585 q 107 690 107 650 l 107 765 q 111 808 107 788 q 127 856 114 829 q 162 901 140 882 q 225 934 184 920 q 322 947 267 947 l 790 947 q 850 942 823 947 q 893 929 876 937 q 922 908 910 922 q 941 885 935 895 q 950 857 947 874 q 954 830 954 840 q 956 803 955 820 l 956 758 q 955 730 956 742 q 948 699 954 718 q 927 661 943 680 q 886 625 911 642 l 745 529 l 852 440 l 852 561 l 1208 561 l 1208 354 l 1125 354 l 1125 0 l 233 0 q 106 58 144 0 q 69 225 69 115 m 429 279 q 439 239 429 249 q 486 229 450 229 l 603 229 l 464 350 q 444 336 451 342 q 433 319 436 330 q 430 303 430 309 q 429 279 429 297 m 501 762 q 528 715 497 745 q 553 693 545 699 q 566 703 557 696 q 577 711 574 709 q 586 719 581 713 q 594 728 592 724 q 598 738 595 732 q 601 752 601 745 q 602 768 602 759 l 603 770 q 595 796 603 791 q 553 802 587 802 q 512 794 523 802 q 501 762 501 787 z "},"'":{"ha":407,"x_min":138,"x_max":271,"o":"m 138 551 l 138 675 l 271 675 l 271 551 l 138 551 z "},"(":{"ha":704,"x_min":85,"x_max":635,"o":"m 85 216 l 85 730 q 175 887 85 827 q 399 947 264 947 l 635 947 l 635 733 l 631 733 q 577 720 593 733 q 561 671 561 707 l 561 281 q 577 230 561 244 q 631 216 593 216 l 635 216 l 635 0 l 399 0 q 314 7 356 0 q 230 30 271 14 q 156 71 188 47 q 104 133 124 95 q 85 216 85 170 z "},")":{"ha":704,"x_min":69,"x_max":619,"o":"m 69 0 l 69 216 l 74 216 q 127 230 112 216 q 143 281 143 244 l 143 671 q 127 720 143 707 q 74 733 112 733 l 69 733 l 69 947 l 306 947 q 465 921 394 947 q 577 844 536 894 q 619 730 619 794 l 619 216 q 590 116 619 159 q 513 48 561 72 q 413 12 465 24 q 306 0 360 0 l 69 0 z "},"*":{"ha":407,"x_min":138,"x_max":271,"o":"m 138 551 l 138 675 l 271 675 l 271 551 l 138 551 z "},"+":{"ha":407,"x_min":138,"x_max":271,"o":"m 138 551 l 138 675 l 271 675 l 271 551 l 138 551 z "},",":{"ha":406,"x_min":36,"x_max":336,"o":"m 36 -138 l 147 0 l 69 0 l 69 249 l 336 249 l 336 0 l 237 -138 l 36 -138 z "},"-":{"ha":407,"x_min":138,"x_max":271,"o":"m 138 551 l 138 675 l 271 675 l 271 551 l 138 551 z "},".":{"ha":406,"x_min":69,"x_max":336,"o":"m 69 0 l 69 249 l 336 249 l 336 0 l 69 0 z "},"/":{"ha":407,"x_min":138,"x_max":271,"o":"m 138 551 l 138 675 l 271 675 l 271 551 l 138 551 z "},":":{"ha":406,"x_min":69,"x_max":336,"o":"m 69 0 l 69 249 l 336 249 l 336 0 l 69 0 m 69 489 l 69 736 l 336 736 l 336 489 l 69 489 z "},";":{"ha":407,"x_min":36,"x_max":338,"o":"m 36 -138 l 147 0 l 69 0 l 69 249 l 336 249 l 336 0 l 237 -138 l 36 -138 m 71 489 l 71 737 l 338 737 l 338 489 l 71 489 z "},"<":{"ha":407,"x_min":138,"x_max":271,"o":"m 138 551 l 138 675 l 271 675 l 271 551 l 138 551 z "},"=":{"ha":407,"x_min":138,"x_max":271,"o":"m 138 551 l 138 675 l 271 675 l 271 551 l 138 551 z "},">":{"ha":407,"x_min":138,"x_max":271,"o":"m 138 551 l 138 675 l 271 675 l 271 551 l 138 551 z "},"?":{"ha":1177,"x_min":97,"x_max":1136,"o":"m 97 0 l 97 216 l 604 216 l 604 0 l 97 0 m 100 288 l 100 582 l 608 582 q 654 596 644 582 q 664 656 664 611 q 652 699 664 686 q 608 711 641 711 l 387 711 q 235 703 281 711 q 102 659 189 694 l 102 947 l 857 947 q 1136 739 1136 947 l 1136 623 q 1122 518 1136 563 q 1076 438 1107 473 q 989 385 1044 403 q 857 367 935 367 l 602 367 l 602 288 l 100 288 z "},"@":{"ha":407,"x_min":138,"x_max":271,"o":"m 138 551 l 138 675 l 271 675 l 271 551 l 138 551 z "},"A":{"ha":1257,"x_min":90,"x_max":1166,"o":"m 90 0 l 90 682 q 149 881 90 814 q 335 947 208 947 l 863 947 q 1166 737 1166 947 l 1166 0 l 688 0 l 688 300 l 570 300 l 570 0 l 90 0 m 568 505 l 688 505 l 688 673 q 676 725 688 715 q 632 736 665 736 q 581 726 593 736 q 568 676 568 715 l 568 505 z "},"B":{"ha":1258,"x_min":37,"x_max":1189,"o":"m 37 947 l 916 947 q 1009 937 964 947 q 1094 902 1053 926 q 1159 834 1135 878 q 1183 730 1183 790 l 1183 643 q 1157 545 1183 583 q 1071 484 1131 507 q 1159 431 1128 477 q 1189 336 1189 386 l 1189 216 q 1174 135 1189 172 q 1133 73 1158 98 q 1075 32 1108 48 q 1007 7 1042 15 q 936 0 972 0 l 97 0 l 97 628 q 85 803 97 726 q 37 947 73 880 m 576 210 l 615 210 q 680 222 664 210 q 696 273 696 234 l 696 328 q 681 373 696 361 q 637 385 666 385 l 576 385 l 576 210 m 576 555 l 637 555 q 696 614 696 555 l 696 665 q 680 717 696 705 q 615 729 664 729 l 576 729 l 576 555 z "},"C":{"ha":1107,"x_min":69,"x_max":1038,"o":"m 69 216 l 69 729 q 114 846 69 795 q 235 922 159 896 q 403 947 310 947 l 1038 947 l 1038 627 q 861 696 922 681 q 699 711 800 711 l 619 711 q 564 693 581 711 q 546 636 546 674 l 546 311 q 563 254 546 273 q 619 236 581 236 l 632 236 q 753 237 715 236 q 839 248 791 239 q 927 272 887 256 q 1038 319 968 288 l 1038 0 l 403 0 q 318 6 360 0 q 229 27 275 12 q 149 65 183 42 q 92 128 114 89 q 69 216 69 167 z "},"D":{"ha":1238,"x_min":37,"x_max":1169,"o":"m 37 947 l 897 947 q 972 941 936 947 q 1045 919 1008 935 q 1108 879 1082 903 q 1152 817 1135 855 q 1169 730 1169 779 l 1169 216 q 1147 118 1169 161 q 1087 50 1124 75 q 1007 13 1050 25 q 918 0 964 0 l 97 0 l 97 628 q 85 802 97 724 q 37 947 73 880 m 574 210 l 612 210 q 677 222 661 210 q 693 273 693 234 l 693 665 q 677 717 693 705 q 612 729 661 729 l 574 729 l 574 210 z "},"E":{"ha":1136,"x_min":35,"x_max":1067,"o":"m 35 947 l 1067 947 l 1067 627 q 897 699 974 684 q 704 711 829 712 q 669 711 687 711 l 575 711 l 575 579 l 958 579 l 958 371 l 575 371 l 575 236 l 669 236 q 723 236 698 236 q 770 236 747 236 q 851 240 815 237 q 921 253 887 243 q 989 278 955 262 q 1067 321 1024 294 l 1067 0 l 97 0 l 97 632 q 35 947 97 861 z "},"F":{"ha":1058,"x_min":37,"x_max":1031,"o":"m 37 947 l 1031 947 l 1031 628 q 850 697 936 682 q 571 711 765 711 l 571 536 l 949 536 l 949 325 l 571 325 l 571 0 l 97 0 l 97 629 q 85 804 97 728 q 37 947 73 880 z "},"G":{"ha":1246,"x_min":69,"x_max":1169,"o":"m 69 218 l 69 730 q 114 847 69 797 q 235 922 159 897 q 403 947 310 947 l 1124 947 l 1124 628 q 948 696 1009 682 q 785 711 886 711 l 619 711 q 545 636 545 711 l 545 311 q 563 254 545 273 q 619 236 581 236 l 693 236 l 693 330 q 677 440 693 389 q 633 518 662 491 l 1169 518 l 1169 0 l 307 0 q 193 25 247 0 q 104 102 140 51 q 69 218 69 153 z "},"H":{"ha":1333,"x_min":37,"x_max":1236,"o":"m 37 947 l 574 947 l 574 571 l 764 571 l 764 629 q 704 947 764 838 l 1236 947 l 1236 0 l 764 0 l 764 359 l 574 359 l 574 0 l 97 0 l 97 629 q 37 947 97 840 z "},"I":{"ha":669,"x_min":37,"x_max":572,"o":"m 37 947 l 572 947 l 572 0 l 97 0 l 97 629 q 37 947 97 831 z "},"J":{"ha":1022,"x_min":14,"x_max":932,"o":"m 14 0 l 14 319 q 190 251 130 267 q 349 236 251 236 l 393 236 q 445 257 426 236 q 464 322 464 279 l 464 746 q 433 947 464 861 l 932 947 l 932 211 q 926 145 932 174 q 903 89 920 117 q 856 41 886 60 q 775 12 826 23 q 653 0 724 0 l 14 0 z "},"K":{"ha":1229,"x_min":56,"x_max":1208,"o":"m 56 947 l 572 947 l 571 599 l 733 947 l 1206 947 l 957 505 l 1208 0 l 755 0 l 571 444 l 572 0 l 97 0 l 97 541 q 56 947 97 802 z "},"L":{"ha":997,"x_min":37,"x_max":983,"o":"m 37 947 l 570 947 l 570 212 l 700 212 q 825 231 766 212 q 983 296 884 249 l 983 0 l 97 0 l 97 629 q 85 803 97 725 q 37 947 73 880 z "},"M":{"ha":1412,"x_min":49,"x_max":1315,"o":"m 49 947 l 526 947 l 705 642 l 885 947 l 1315 947 l 1315 0 l 885 0 l 886 418 l 705 103 l 526 418 l 526 0 l 97 0 l 97 710 q 49 947 97 836 z "},"N":{"ha":1242,"x_min":37,"x_max":1146,"o":"m 37 947 l 513 947 l 869 476 l 869 582 q 810 947 869 804 l 1146 947 l 1146 0 l 728 0 l 357 471 l 357 0 l 97 0 l 97 629 q 37 947 97 836 z "},"O":{"ha":1230,"x_min":69,"x_max":1161,"o":"m 69 216 l 69 729 q 111 844 69 793 q 224 921 153 894 q 383 947 295 947 l 847 947 q 1006 921 935 947 q 1119 844 1078 894 q 1161 729 1161 793 l 1161 216 q 1142 134 1161 171 q 1091 72 1122 96 q 1018 31 1060 47 q 934 7 977 14 q 847 0 891 0 l 383 0 q 282 11 333 0 q 181 46 231 22 q 100 113 132 69 q 69 216 69 157 m 546 279 q 562 231 546 245 q 611 216 577 216 l 619 216 q 669 231 653 216 q 685 279 685 245 l 685 669 q 670 718 685 703 q 619 732 654 732 l 611 732 q 561 718 576 732 q 546 669 546 703 l 546 279 z "},"P":{"ha":1198,"x_min":37,"x_max":1164,"o":"m 37 947 l 895 947 q 969 941 933 947 q 1042 919 1006 935 q 1104 879 1078 903 q 1147 817 1131 855 q 1164 730 1164 779 l 1164 555 q 1150 455 1164 496 q 1105 382 1137 413 q 1017 336 1073 351 q 879 321 961 321 l 567 321 l 567 0 l 97 0 l 97 628 q 85 805 97 729 q 37 947 73 880 m 567 541 l 628 541 q 688 599 688 541 l 688 665 q 671 716 688 704 q 607 729 654 729 l 567 729 l 567 541 z "},"Q":{"ha":1247,"x_min":71,"x_max":1265,"o":"m 71 216 l 71 728 q 161 886 71 825 q 385 947 251 947 l 850 947 q 1074 886 983 947 q 1164 728 1164 825 l 1164 216 q 1088 68 1164 120 l 1265 -111 l 746 -111 l 642 0 l 385 0 q 283 12 335 0 q 182 47 232 23 q 102 115 133 71 q 71 216 71 159 m 547 279 q 564 230 547 243 q 618 216 580 216 q 672 230 656 216 q 688 279 688 243 l 688 669 q 672 719 688 705 q 618 732 656 732 q 564 718 580 732 q 547 669 547 705 l 547 279 z "},"R":{"ha":1261,"x_min":37,"x_max":1221,"o":"m 37 947 l 909 947 q 984 942 948 947 q 1057 922 1021 936 q 1119 885 1093 907 q 1162 828 1145 863 q 1178 749 1178 793 l 1178 566 q 1019 385 1178 429 l 1221 0 l 713 0 l 570 325 l 570 0 l 97 0 l 97 631 q 37 947 97 852 m 571 536 l 632 536 q 674 550 658 536 q 690 593 690 564 l 690 672 q 674 724 690 711 q 610 736 659 736 l 571 736 l 571 536 z "},"S":{"ha":1145,"x_min":77,"x_max":1069,"o":"m 77 0 l 77 321 q 232 252 164 267 q 403 236 299 236 l 504 236 q 555 248 542 236 q 568 288 568 259 q 555 325 568 315 q 493 347 542 335 l 283 396 q 212 422 245 406 q 149 463 178 438 q 102 527 119 488 q 85 612 85 565 l 85 700 q 153 878 85 808 q 345 947 221 947 l 1054 947 l 1054 627 q 893 695 962 680 q 720 711 825 711 l 621 711 q 572 702 585 711 q 559 663 559 692 q 575 623 559 634 q 643 603 591 611 l 907 558 q 1069 351 1069 529 l 1069 218 q 1054 134 1069 172 q 1013 71 1038 96 q 953 30 987 47 q 885 7 920 14 q 815 0 850 0 l 77 0 z "},"T":{"ha":1189,"x_min":14,"x_max":1175,"o":"m 14 632 l 14 947 l 1175 947 l 1175 632 l 1078 677 q 1001 708 1033 699 q 932 717 969 717 l 842 717 l 842 0 l 367 0 l 367 717 l 257 717 q 121 682 194 717 l 14 632 z "},"U":{"ha":1241,"x_min":58,"x_max":1152,"o":"m 58 947 l 562 947 l 562 297 q 576 249 562 262 q 627 235 591 236 q 629 235 628 235 q 671 251 659 235 q 684 306 684 269 l 684 745 q 652 947 684 863 l 1152 947 l 1152 201 q 1139 122 1152 157 q 1096 59 1126 88 q 1010 15 1066 31 q 872 0 954 0 l 325 0 q 232 11 273 0 q 165 40 191 22 q 122 82 139 58 q 97 129 104 106 q 90 176 90 153 l 90 745 q 58 947 90 856 z "},"V":{"ha":1083,"x_min":-87,"x_max":1103,"o":"m -87 947 l 464 947 l 623 367 l 700 629 q 731 774 723 709 q 736 848 736 816 q 734 881 736 866 q 715 947 730 922 l 1103 947 l 789 0 l 298 0 l 83 629 q 1 817 49 731 q -87 947 -46 903 z "},"W":{"ha":1494,"x_min":-74,"x_max":1514,"o":"m -74 947 l 422 947 l 530 547 l 635 947 l 964 947 l 1086 546 l 1108 629 q 1144 850 1144 764 q 1126 947 1144 911 l 1514 947 l 1200 0 l 867 0 l 751 400 l 654 0 l 298 0 l 83 629 q 5 817 49 732 q -74 947 -38 903 z "},"X":{"ha":1094,"x_min":-75,"x_max":1169,"o":"m -75 947 l 488 947 l 596 782 l 721 947 l 1088 947 l 766 551 l 1169 0 l 615 0 l 488 196 l 347 0 l -26 0 l 323 456 l 207 629 q -75 947 60 848 z "},"Y":{"ha":1114,"x_min":-87,"x_max":1137,"o":"m -87 947 l 476 947 l 635 550 l 696 703 q 731 814 720 764 q 741 887 741 858 q 741 897 741 892 q 728 947 739 928 l 1137 947 l 800 273 l 800 0 l 314 0 l 314 273 l 97 694 q 5 845 54 779 q -87 947 -44 911 z "},"Z":{"ha":1086,"x_min":62,"x_max":1023,"o":"m 62 0 l 62 212 l 464 720 l 309 720 q 196 700 252 720 q 65 635 140 680 l 65 947 l 987 947 l 987 733 l 612 224 l 781 224 q 887 243 836 224 q 1023 309 939 262 l 1023 0 l 62 0 z "},"[":{"ha":407,"x_min":138,"x_max":271,"o":"m 138 551 l 138 675 l 271 675 l 271 551 l 138 551 z "},"\\":{"ha":407,"x_min":138,"x_max":271,"o":"m 138 551 l 138 675 l 271 675 l 271 551 l 138 551 z "},"]":{"ha":407,"x_min":138,"x_max":271,"o":"m 138 551 l 138 675 l 271 675 l 271 551 l 138 551 z "},"^":{"ha":407,"x_min":138,"x_max":271,"o":"m 138 551 l 138 675 l 271 675 l 271 551 l 138 551 z "},"_":{"ha":407,"x_min":138,"x_max":271,"o":"m 138 551 l 138 675 l 271 675 l 271 551 l 138 551 z "},"`":{"ha":407,"x_min":138,"x_max":271,"o":"m 138 551 l 138 675 l 271 675 l 271 551 l 138 551 z "},"a":{"ha":1257,"x_min":90,"x_max":1166,"o":"m 90 0 l 90 682 q 149 881 90 814 q 335 947 208 947 l 863 947 q 1166 737 1166 947 l 1166 0 l 688 0 l 688 300 l 570 300 l 570 0 l 90 0 m 568 505 l 688 505 l 688 673 q 676 725 688 715 q 632 736 665 736 q 581 726 593 736 q 568 676 568 715 l 568 505 z "},"b":{"ha":1258,"x_min":37,"x_max":1189,"o":"m 37 947 l 916 947 q 1009 937 964 947 q 1094 902 1053 926 q 1159 834 1135 878 q 1183 730 1183 790 l 1183 643 q 1157 545 1183 583 q 1071 484 1131 507 q 1159 431 1128 477 q 1189 336 1189 386 l 1189 216 q 1174 135 1189 172 q 1133 73 1158 98 q 1075 32 1108 48 q 1007 7 1042 15 q 936 0 972 0 l 97 0 l 97 628 q 85 803 97 726 q 37 947 73 880 m 576 210 l 615 210 q 680 222 664 210 q 696 273 696 234 l 696 328 q 681 373 696 361 q 637 385 666 385 l 576 385 l 576 210 m 576 555 l 637 555 q 696 614 696 555 l 696 665 q 680 717 696 705 q 615 729 664 729 l 576 729 l 576 555 z "},"c":{"ha":1107,"x_min":69,"x_max":1038,"o":"m 69 216 l 69 729 q 114 846 69 795 q 235 922 159 896 q 403 947 310 947 l 1038 947 l 1038 627 q 861 696 922 681 q 699 711 800 711 l 619 711 q 564 693 581 711 q 546 636 546 674 l 546 311 q 563 254 546 273 q 619 236 581 236 l 632 236 q 753 237 715 236 q 839 248 791 239 q 927 272 887 256 q 1038 319 968 288 l 1038 0 l 403 0 q 318 6 360 0 q 229 27 275 12 q 149 65 183 42 q 92 128 114 89 q 69 216 69 167 z "},"d":{"ha":1238,"x_min":37,"x_max":1169,"o":"m 37 947 l 897 947 q 972 941 936 947 q 1045 919 1008 935 q 1108 879 1082 903 q 1152 817 1135 855 q 1169 730 1169 779 l 1169 216 q 1147 118 1169 161 q 1087 50 1124 75 q 1007 13 1050 25 q 918 0 964 0 l 97 0 l 97 628 q 85 802 97 724 q 37 947 73 880 m 574 210 l 612 210 q 677 222 661 210 q 693 273 693 234 l 693 665 q 677 717 693 705 q 612 729 661 729 l 574 729 l 574 210 z "},"e":{"ha":1136,"x_min":35,"x_max":1067,"o":"m 35 947 l 1067 947 l 1067 627 q 897 699 974 684 q 704 711 829 712 q 669 711 687 711 l 575 711 l 575 579 l 958 579 l 958 371 l 575 371 l 575 236 l 669 236 q 723 236 698 236 q 770 236 747 236 q 851 240 815 237 q 921 253 887 243 q 989 278 955 262 q 1067 321 1024 294 l 1067 0 l 97 0 l 97 632 q 35 947 97 861 z "},"f":{"ha":1058,"x_min":37,"x_max":1031,"o":"m 37 947 l 1031 947 l 1031 628 q 850 697 936 682 q 571 711 765 711 l 571 536 l 949 536 l 949 325 l 571 325 l 571 0 l 97 0 l 97 629 q 85 804 97 728 q 37 947 73 880 z "},"g":{"ha":1246,"x_min":69,"x_max":1169,"o":"m 69 218 l 69 730 q 114 847 69 797 q 235 922 159 897 q 403 947 310 947 l 1124 947 l 1124 628 q 948 696 1009 682 q 785 711 886 711 l 619 711 q 545 636 545 711 l 545 311 q 563 254 545 273 q 619 236 581 236 l 693 236 l 693 330 q 677 440 693 389 q 633 518 662 491 l 1169 518 l 1169 0 l 307 0 q 193 25 247 0 q 104 102 140 51 q 69 218 69 153 z "},"h":{"ha":1333,"x_min":37,"x_max":1236,"o":"m 37 947 l 574 947 l 574 571 l 764 571 l 764 629 q 704 947 764 838 l 1236 947 l 1236 0 l 764 0 l 764 359 l 574 359 l 574 0 l 97 0 l 97 629 q 37 947 97 840 z "},"i":{"ha":669,"x_min":37,"x_max":572,"o":"m 37 947 l 572 947 l 572 0 l 97 0 l 97 629 q 37 947 97 831 z "},"j":{"ha":1022,"x_min":14,"x_max":932,"o":"m 14 0 l 14 319 q 190 251 130 267 q 349 236 251 236 l 393 236 q 445 257 426 236 q 464 322 464 279 l 464 746 q 433 947 464 861 l 932 947 l 932 211 q 926 145 932 174 q 903 89 920 117 q 856 41 886 60 q 775 12 826 23 q 653 0 724 0 l 14 0 z "},"k":{"ha":1229,"x_min":56,"x_max":1208,"o":"m 56 947 l 572 947 l 571 599 l 733 947 l 1206 947 l 957 505 l 1208 0 l 755 0 l 571 444 l 572 0 l 97 0 l 97 541 q 56 947 97 802 z "},"l":{"ha":997,"x_min":37,"x_max":983,"o":"m 37 947 l 570 947 l 570 212 l 700 212 q 825 231 766 212 q 983 296 884 249 l 983 0 l 97 0 l 97 629 q 85 803 97 725 q 37 947 73 880 z "},"m":{"ha":1412,"x_min":49,"x_max":1315,"o":"m 49 947 l 526 947 l 705 642 l 885 947 l 1315 947 l 1315 0 l 885 0 l 886 418 l 705 103 l 526 418 l 526 0 l 97 0 l 97 710 q 49 947 97 836 z "},"n":{"ha":1242,"x_min":37,"x_max":1146,"o":"m 37 947 l 513 947 l 869 476 l 869 582 q 810 947 869 804 l 1146 947 l 1146 0 l 728 0 l 357 471 l 357 0 l 97 0 l 97 629 q 37 947 97 836 z "},"o":{"ha":1230,"x_min":69,"x_max":1161,"o":"m 69 216 l 69 729 q 111 844 69 793 q 224 921 153 894 q 383 947 295 947 l 847 947 q 1006 921 935 947 q 1119 844 1078 894 q 1161 729 1161 793 l 1161 216 q 1142 134 1161 171 q 1091 72 1122 96 q 1018 31 1060 47 q 934 7 977 14 q 847 0 891 0 l 383 0 q 282 11 333 0 q 181 46 231 22 q 100 113 132 69 q 69 216 69 157 m 546 279 q 562 231 546 245 q 611 216 577 216 l 619 216 q 669 231 653 216 q 685 279 685 245 l 685 669 q 670 718 685 703 q 619 732 654 732 l 611 732 q 561 718 576 732 q 546 669 546 703 l 546 279 z "},"p":{"ha":1198,"x_min":37,"x_max":1164,"o":"m 37 947 l 895 947 q 969 941 933 947 q 1042 919 1006 935 q 1104 879 1078 903 q 1147 817 1131 855 q 1164 730 1164 779 l 1164 555 q 1150 455 1164 496 q 1105 382 1137 413 q 1017 336 1073 351 q 879 321 961 321 l 567 321 l 567 0 l 97 0 l 97 628 q 85 805 97 729 q 37 947 73 880 m 567 541 l 628 541 q 688 599 688 541 l 688 665 q 671 716 688 704 q 607 729 654 729 l 567 729 l 567 541 z "},"q":{"ha":1247,"x_min":71,"x_max":1265,"o":"m 71 216 l 71 728 q 161 886 71 825 q 385 947 251 947 l 850 947 q 1074 886 983 947 q 1164 728 1164 825 l 1164 216 q 1088 68 1164 120 l 1265 -111 l 746 -111 l 642 0 l 385 0 q 283 12 335 0 q 182 47 232 23 q 102 115 133 71 q 71 216 71 159 m 547 279 q 564 230 547 243 q 618 216 580 216 q 672 230 656 216 q 688 279 688 243 l 688 669 q 672 719 688 705 q 618 732 656 732 q 564 718 580 732 q 547 669 547 705 l 547 279 z "},"r":{"ha":1261,"x_min":37,"x_max":1221,"o":"m 37 947 l 909 947 q 984 942 948 947 q 1057 922 1021 936 q 1119 885 1093 907 q 1162 828 1145 863 q 1178 749 1178 793 l 1178 566 q 1019 385 1178 429 l 1221 0 l 713 0 l 570 325 l 570 0 l 97 0 l 97 631 q 37 947 97 852 m 571 536 l 632 536 q 674 550 658 536 q 690 593 690 564 l 690 672 q 674 724 690 711 q 610 736 659 736 l 571 736 l 571 536 z "},"s":{"ha":1145,"x_min":77,"x_max":1069,"o":"m 77 0 l 77 321 q 232 252 164 267 q 403 236 299 236 l 504 236 q 555 248 542 236 q 568 288 568 259 q 555 325 568 315 q 493 347 542 335 l 283 396 q 212 422 245 406 q 149 463 178 438 q 102 527 119 488 q 85 612 85 565 l 85 700 q 153 878 85 808 q 345 947 221 947 l 1054 947 l 1054 627 q 893 695 962 680 q 720 711 825 711 l 621 711 q 572 702 585 711 q 559 663 559 692 q 575 623 559 634 q 643 603 591 611 l 907 558 q 1069 351 1069 529 l 1069 218 q 1054 134 1069 172 q 1013 71 1038 96 q 953 30 987 47 q 885 7 920 14 q 815 0 850 0 l 77 0 z "},"t":{"ha":1189,"x_min":14,"x_max":1175,"o":"m 14 632 l 14 947 l 1175 947 l 1175 632 l 1078 677 q 1001 708 1033 699 q 932 717 969 717 l 842 717 l 842 0 l 367 0 l 367 717 l 257 717 q 121 682 194 717 l 14 632 z "},"u":{"ha":1241,"x_min":58,"x_max":1152,"o":"m 58 947 l 562 947 l 562 297 q 576 249 562 262 q 627 235 591 236 q 629 235 628 235 q 671 251 659 235 q 684 306 684 269 l 684 745 q 652 947 684 863 l 1152 947 l 1152 201 q 1139 122 1152 157 q 1096 59 1126 88 q 1010 15 1066 31 q 872 0 954 0 l 325 0 q 232 11 273 0 q 165 40 191 22 q 122 82 139 58 q 97 129 104 106 q 90 176 90 153 l 90 745 q 58 947 90 856 z "},"v":{"ha":1083,"x_min":-87,"x_max":1103,"o":"m -87 947 l 464 947 l 623 367 l 700 629 q 731 774 723 709 q 736 848 736 816 q 734 881 736 866 q 715 947 730 922 l 1103 947 l 789 0 l 298 0 l 83 629 q 1 817 49 731 q -87 947 -46 903 z "},"w":{"ha":1494,"x_min":-74,"x_max":1514,"o":"m -74 947 l 422 947 l 530 547 l 635 947 l 964 947 l 1086 546 l 1108 629 q 1144 850 1144 764 q 1126 947 1144 911 l 1514 947 l 1200 0 l 867 0 l 751 400 l 654 0 l 298 0 l 83 629 q 5 817 49 732 q -74 947 -38 903 z "},"x":{"ha":1094,"x_min":-75,"x_max":1169,"o":"m -75 947 l 488 947 l 596 782 l 721 947 l 1088 947 l 766 551 l 1169 0 l 615 0 l 488 196 l 347 0 l -26 0 l 323 456 l 207 629 q -75 947 60 848 z "},"y":{"ha":1114,"x_min":-87,"x_max":1137,"o":"m -87 947 l 476 947 l 635 550 l 696 703 q 731 814 720 764 q 741 887 741 858 q 741 897 741 892 q 728 947 739 928 l 1137 947 l 800 273 l 800 0 l 314 0 l 314 273 l 97 694 q 5 845 54 779 q -87 947 -44 911 z "},"z":{"ha":1086,"x_min":62,"x_max":1023,"o":"m 62 0 l 62 212 l 464 720 l 309 720 q 196 700 252 720 q 65 635 140 680 l 65 947 l 987 947 l 987 733 l 612 224 l 781 224 q 887 243 836 224 q 1023 309 939 262 l 1023 0 l 62 0 z "},"{":{"ha":407,"x_min":138,"x_max":271,"o":"m 138 551 l 138 675 l 271 675 l 271 551 l 138 551 z "},"|":{"ha":407,"x_min":138,"x_max":271,"o":"m 138 551 l 138 675 l 271 675 l 271 551 l 138 551 z "},"}":{"ha":407,"x_min":138,"x_max":271,"o":"m 138 551 l 138 675 l 271 675 l 271 551 l 138 551 z "},"~":{"ha":407,"x_min":138,"x_max":271,"o":"m 138 551 l 138 675 l 271 675 l 271 551 l 138 551 z "}," ":{"ha":407,"x_min":138,"x_max":271,"o":"m 138 551 l 138 675 l 271 675 l 271 551 l 138 551 z "},"¡":{"ha":407,"x_min":138,"x_max":271,"o":"m 138 551 l 138 675 l 271 675 l 271 551 l 138 551 z "},"¢":{"ha":407,"x_min":138,"x_max":271,"o":"m 138 551 l 138 675 l 271 675 l 271 551 l 138 551 z "},"£":{"ha":407,"x_min":138,"x_max":271,"o":"m 138 551 l 138 675 l 271 675 l 271 551 l 138 551 z "},"¤":{"ha":407,"x_min":138,"x_max":271,"o":"m 138 551 l 138 675 l 271 675 l 271 551 l 138 551 z "},"¥":{"ha":407,"x_min":138,"x_max":271,"o":"m 138 551 l 138 675 l 271 675 l 271 551 l 138 551 z "},"¦":{"ha":407,"x_min":138,"x_max":271,"o":"m 138 551 l 138 675 l 271 675 l 271 551 l 138 551 z "},"§":{"ha":407,"x_min":138,"x_max":271,"o":"m 138 551 l 138 675 l 271 675 l 271 551 l 138 551 z "},"¨":{"ha":407,"x_min":138,"x_max":271,"o":"m 138 551 l 138 675 l 271 675 l 271 551 l 138 551 z "},"©":{"ha":407,"x_min":138,"x_max":271,"o":"m 138 551 l 138 675 l 271 675 l 271 551 l 138 551 z "},"ª":{"ha":407,"x_min":138,"x_max":271,"o":"m 138 551 l 138 675 l 271 675 l 271 551 l 138 551 z "},"«":{"ha":407,"x_min":138,"x_max":271,"o":"m 138 551 l 138 675 l 271 675 l 271 551 l 138 551 z "},"¬":{"ha":407,"x_min":138,"x_max":271,"o":"m 138 551 l 138 675 l 271 675 l 271 551 l 138 551 z "},"­":{"ha":407,"x_min":138,"x_max":271,"o":"m 138 551 l 138 675 l 271 675 l 271 551 l 138 551 z "},"®":{"ha":407,"x_min":138,"x_max":271,"o":"m 138 551 l 138 675 l 271 675 l 271 551 l 138 551 z "},"¯":{"ha":407,"x_min":138,"x_max":271,"o":"m 138 551 l 138 675 l 271 675 l 271 551 l 138 551 z "},"°":{"ha":407,"x_min":138,"x_max":271,"o":"m 138 551 l 138 675 l 271 675 l 271 551 l 138 551 z "},"±":{"ha":407,"x_min":138,"x_max":271,"o":"m 138 551 l 138 675 l 271 675 l 271 551 l 138 551 z "},"²":{"ha":407,"x_min":138,"x_max":271,"o":"m 138 551 l 138 675 l 271 675 l 271 551 l 138 551 z "},"³":{"ha":407,"x_min":138,"x_max":271,"o":"m 138 551 l 138 675 l 271 675 l 271 551 l 138 551 z "},"´":{"ha":407,"x_min":138,"x_max":271,"o":"m 138 551 l 138 675 l 271 675 l 271 551 l 138 551 z "},"µ":{"ha":407,"x_min":138,"x_max":271,"o":"m 138 551 l 138 675 l 271 675 l 271 551 l 138 551 z "},"¶":{"ha":407,"x_min":138,"x_max":271,"o":"m 138 551 l 138 675 l 271 675 l 271 551 l 138 551 z "},"·":{"ha":407,"x_min":138,"x_max":271,"o":"m 138 551 l 138 675 l 271 675 l 271 551 l 138 551 z "},"¸":{"ha":407,"x_min":138,"x_max":271,"o":"m 138 551 l 138 675 l 271 675 l 271 551 l 138 551 z "},"¹":{"ha":407,"x_min":138,"x_max":271,"o":"m 138 551 l 138 675 l 271 675 l 271 551 l 138 551 z "},"º":{"ha":407,"x_min":138,"x_max":271,"o":"m 138 551 l 138 675 l 271 675 l 271 551 l 138 551 z "},"»":{"ha":407,"x_min":138,"x_max":271,"o":"m 138 551 l 138 675 l 271 675 l 271 551 l 138 551 z "},"¼":{"ha":407,"x_min":138,"x_max":271,"o":"m 138 551 l 138 675 l 271 675 l 271 551 l 138 551 z "},"½":{"ha":407,"x_min":138,"x_max":271,"o":"m 138 551 l 138 675 l 271 675 l 271 551 l 138 551 z "},"¾":{"ha":407,"x_min":138,"x_max":271,"o":"m 138 551 l 138 675 l 271 675 l 271 551 l 138 551 z "},"¿":{"ha":407,"x_min":138,"x_max":271,"o":"m 138 551 l 138 675 l 271 675 l 271 551 l 138 551 z "},"À":{"ha":407,"x_min":138,"x_max":271,"o":"m 138 551 l 138 675 l 271 675 l 271 551 l 138 551 z "},"Á":{"ha":407,"x_min":138,"x_max":271,"o":"m 138 551 l 138 675 l 271 675 l 271 551 l 138 551 z "},"Â":{"ha":407,"x_min":138,"x_max":271,"o":"m 138 551 l 138 675 l 271 675 l 271 551 l 138 551 z "},"Ã":{"ha":407,"x_min":138,"x_max":271,"o":"m 138 551 l 138 675 l 271 675 l 271 551 l 138 551 z "},"Ä":{"ha":407,"x_min":138,"x_max":271,"o":"m 138 551 l 138 675 l 271 675 l 271 551 l 138 551 z "},"Å":{"ha":407,"x_min":138,"x_max":271,"o":"m 138 551 l 138 675 l 271 675 l 271 551 l 138 551 z "},"Æ":{"ha":407,"x_min":138,"x_max":271,"o":"m 138 551 l 138 675 l 271 675 l 271 551 l 138 551 z "},"Ç":{"ha":407,"x_min":138,"x_max":271,"o":"m 138 551 l 138 675 l 271 675 l 271 551 l 138 551 z "},"È":{"ha":407,"x_min":138,"x_max":271,"o":"m 138 551 l 138 675 l 271 675 l 271 551 l 138 551 z "},"É":{"ha":407,"x_min":138,"x_max":271,"o":"m 138 551 l 138 675 l 271 675 l 271 551 l 138 551 z "},"Ê":{"ha":407,"x_min":138,"x_max":271,"o":"m 138 551 l 138 675 l 271 675 l 271 551 l 138 551 z "},"Ë":{"ha":407,"x_min":138,"x_max":271,"o":"m 138 551 l 138 675 l 271 675 l 271 551 l 138 551 z "},"Ì":{"ha":407,"x_min":138,"x_max":271,"o":"m 138 551 l 138 675 l 271 675 l 271 551 l 138 551 z "},"Í":{"ha":407,"x_min":138,"x_max":271,"o":"m 138 551 l 138 675 l 271 675 l 271 551 l 138 551 z "},"Î":{"ha":407,"x_min":138,"x_max":271,"o":"m 138 551 l 138 675 l 271 675 l 271 551 l 138 551 z "},"Ï":{"ha":407,"x_min":138,"x_max":271,"o":"m 138 551 l 138 675 l 271 675 l 271 551 l 138 551 z "},"Ð":{"ha":407,"x_min":138,"x_max":271,"o":"m 138 551 l 138 675 l 271 675 l 271 551 l 138 551 z "},"Ñ":{"ha":407,"x_min":138,"x_max":271,"o":"m 138 551 l 138 675 l 271 675 l 271 551 l 138 551 z "},"Ò":{"ha":407,"x_min":138,"x_max":271,"o":"m 138 551 l 138 675 l 271 675 l 271 551 l 138 551 z "},"Ó":{"ha":407,"x_min":138,"x_max":271,"o":"m 138 551 l 138 675 l 271 675 l 271 551 l 138 551 z "},"Ô":{"ha":407,"x_min":138,"x_max":271,"o":"m 138 551 l 138 675 l 271 675 l 271 551 l 138 551 z "},"Õ":{"ha":407,"x_min":138,"x_max":271,"o":"m 138 551 l 138 675 l 271 675 l 271 551 l 138 551 z "},"Ö":{"ha":407,"x_min":138,"x_max":271,"o":"m 138 551 l 138 675 l 271 675 l 271 551 l 138 551 z "},"×":{"ha":407,"x_min":138,"x_max":271,"o":"m 138 551 l 138 675 l 271 675 l 271 551 l 138 551 z "},"Ø":{"ha":407,"x_min":138,"x_max":271,"o":"m 138 551 l 138 675 l 271 675 l 271 551 l 138 551 z "},"Ù":{"ha":407,"x_min":138,"x_max":271,"o":"m 138 551 l 138 675 l 271 675 l 271 551 l 138 551 z "},"Ú":{"ha":407,"x_min":138,"x_max":271,"o":"m 138 551 l 138 675 l 271 675 l 271 551 l 138 551 z "},"Û":{"ha":407,"x_min":138,"x_max":271,"o":"m 138 551 l 138 675 l 271 675 l 271 551 l 138 551 z "},"Ü":{"ha":407,"x_min":138,"x_max":271,"o":"m 138 551 l 138 675 l 271 675 l 271 551 l 138 551 z "},"Ý":{"ha":407,"x_min":138,"x_max":271,"o":"m 138 551 l 138 675 l 271 675 l 271 551 l 138 551 z "},"Þ":{"ha":407,"x_min":138,"x_max":271,"o":"m 138 551 l 138 675 l 271 675 l 271 551 l 138 551 z "},"ß":{"ha":407,"x_min":138,"x_max":271,"o":"m 138 551 l 138 675 l 271 675 l 271 551 l 138 551 z "},"à":{"ha":407,"x_min":138,"x_max":271,"o":"m 138 551 l 138 675 l 271 675 l 271 551 l 138 551 z "},"á":{"ha":407,"x_min":138,"x_max":271,"o":"m 138 551 l 138 675 l 271 675 l 271 551 l 138 551 z "},"â":{"ha":407,"x_min":138,"x_max":271,"o":"m 138 551 l 138 675 l 271 675 l 271 551 l 138 551 z "},"ã":{"ha":407,"x_min":138,"x_max":271,"o":"m 138 551 l 138 675 l 271 675 l 271 551 l 138 551 z "},"ä":{"ha":407,"x_min":138,"x_max":271,"o":"m 138 551 l 138 675 l 271 675 l 271 551 l 138 551 z "},"å":{"ha":407,"x_min":138,"x_max":271,"o":"m 138 551 l 138 675 l 271 675 l 271 551 l 138 551 z "},"æ":{"ha":407,"x_min":138,"x_max":271,"o":"m 138 551 l 138 675 l 271 675 l 271 551 l 138 551 z "},"ç":{"ha":407,"x_min":138,"x_max":271,"o":"m 138 551 l 138 675 l 271 675 l 271 551 l 138 551 z "},"è":{"ha":407,"x_min":138,"x_max":271,"o":"m 138 551 l 138 675 l 271 675 l 271 551 l 138 551 z "},"é":{"ha":407,"x_min":138,"x_max":271,"o":"m 138 551 l 138 675 l 271 675 l 271 551 l 138 551 z "},"ê":{"ha":407,"x_min":138,"x_max":271,"o":"m 138 551 l 138 675 l 271 675 l 271 551 l 138 551 z "},"ë":{"ha":407,"x_min":138,"x_max":271,"o":"m 138 551 l 138 675 l 271 675 l 271 551 l 138 551 z "},"ì":{"ha":407,"x_min":138,"x_max":271,"o":"m 138 551 l 138 675 l 271 675 l 271 551 l 138 551 z "},"í":{"ha":407,"x_min":138,"x_max":271,"o":"m 138 551 l 138 675 l 271 675 l 271 551 l 138 551 z "},"î":{"ha":407,"x_min":138,"x_max":271,"o":"m 138 551 l 138 675 l 271 675 l 271 551 l 138 551 z "},"ï":{"ha":407,"x_min":138,"x_max":271,"o":"m 138 551 l 138 675 l 271 675 l 271 551 l 138 551 z "},"ð":{"ha":407,"x_min":138,"x_max":271,"o":"m 138 551 l 138 675 l 271 675 l 271 551 l 138 551 z "},"ñ":{"ha":407,"x_min":138,"x_max":271,"o":"m 138 551 l 138 675 l 271 675 l 271 551 l 138 551 z "},"ò":{"ha":407,"x_min":138,"x_max":271,"o":"m 138 551 l 138 675 l 271 675 l 271 551 l 138 551 z "},"ó":{"ha":407,"x_min":138,"x_max":271,"o":"m 138 551 l 138 675 l 271 675 l 271 551 l 138 551 z "},"ô":{"ha":407,"x_min":138,"x_max":271,"o":"m 138 551 l 138 675 l 271 675 l 271 551 l 138 551 z "},"õ":{"ha":407,"x_min":138,"x_max":271,"o":"m 138 551 l 138 675 l 271 675 l 271 551 l 138 551 z "},"ö":{"ha":407,"x_min":138,"x_max":271,"o":"m 138 551 l 138 675 l 271 675 l 271 551 l 138 551 z "},"÷":{"ha":407,"x_min":138,"x_max":271,"o":"m 138 551 l 138 675 l 271 675 l 271 551 l 138 551 z "},"ø":{"ha":407,"x_min":138,"x_max":271,"o":"m 138 551 l 138 675 l 271 675 l 271 551 l 138 551 z "},"ù":{"ha":407,"x_min":138,"x_max":271,"o":"m 138 551 l 138 675 l 271 675 l 271 551 l 138 551 z "},"ú":{"ha":407,"x_min":138,"x_max":271,"o":"m 138 551 l 138 675 l 271 675 l 271 551 l 138 551 z "},"û":{"ha":407,"x_min":138,"x_max":271,"o":"m 138 551 l 138 675 l 271 675 l 271 551 l 138 551 z "},"ü":{"ha":407,"x_min":138,"x_max":271,"o":"m 138 551 l 138 675 l 271 675 l 271 551 l 138 551 z "},"ý":{"ha":407,"x_min":138,"x_max":271,"o":"m 138 551 l 138 675 l 271 675 l 271 551 l 138 551 z "},"þ":{"ha":407,"x_min":138,"x_max":271,"o":"m 138 551 l 138 675 l 271 675 l 271 551 l 138 551 z "},"ÿ":{"ha":407,"x_min":138,"x_max":271,"o":"m 138 551 l 138 675 l 271 675 l 271 551 l 138 551 z "},"Œ":{"ha":407,"x_min":138,"x_max":271,"o":"m 138 551 l 138 675 l 271 675 l 271 551 l 138 551 z "},"œ":{"ha":407,"x_min":138,"x_max":271,"o":"m 138 551 l 138 675 l 271 675 l 271 551 l 138 551 z "},"Ÿ":{"ha":407,"x_min":138,"x_max":271,"o":"m 138 551 l 138 675 l 271 675 l 271 551 l 138 551 z "},"ˆ":{"ha":407,"x_min":138,"x_max":271,"o":"m 138 551 l 138 675 l 271 675 l 271 551 l 138 551 z "},"˜":{"ha":407,"x_min":138,"x_max":271,"o":"m 138 551 l 138 675 l 271 675 l 271 551 l 138 551 z "}," ":{"ha":531,"x_min":0,"x_max":0,"o":""}," ":{"ha":1063,"x_min":0,"x_max":0,"o":""}," ":{"ha":531,"x_min":0,"x_max":0,"o":""}," ":{"ha":1063,"x_min":0,"x_max":0,"o":""}," ":{"ha":354,"x_min":0,"x_max":0,"o":""}," ":{"ha":265,"x_min":0,"x_max":0,"o":""}," ":{"ha":177,"x_min":0,"x_max":0,"o":""}," ":{"ha":177,"x_min":0,"x_max":0,"o":""}," ":{"ha":132,"x_min":0,"x_max":0,"o":""}," ":{"ha":212,"x_min":0,"x_max":0,"o":""}," ":{"ha":59,"x_min":0,"x_max":0,"o":""},"‐":{"ha":407,"x_min":138,"x_max":271,"o":"m 138 551 l 138 675 l 271 675 l 271 551 l 138 551 z "},"‑":{"ha":407,"x_min":138,"x_max":271,"o":"m 138 551 l 138 675 l 271 675 l 271 551 l 138 551 z "},"‒":{"ha":407,"x_min":138,"x_max":271,"o":"m 138 551 l 138 675 l 271 675 l 271 551 l 138 551 z "},"–":{"ha":407,"x_min":138,"x_max":271,"o":"m 138 551 l 138 675 l 271 675 l 271 551 l 138 551 z "},"—":{"ha":407,"x_min":138,"x_max":271,"o":"m 138 551 l 138 675 l 271 675 l 271 551 l 138 551 z "},"‘":{"ha":407,"x_min":138,"x_max":271,"o":"m 138 551 l 138 675 l 271 675 l 271 551 l 138 551 z "},"’":{"ha":407,"x_min":138,"x_max":271,"o":"m 138 551 l 138 675 l 271 675 l 271 551 l 138 551 z "},"‚":{"ha":407,"x_min":138,"x_max":271,"o":"m 138 551 l 138 675 l 271 675 l 271 551 l 138 551 z "},"“":{"ha":407,"x_min":138,"x_max":271,"o":"m 138 551 l 138 675 l 271 675 l 271 551 l 138 551 z "},"”":{"ha":407,"x_min":138,"x_max":271,"o":"m 138 551 l 138 675 l 271 675 l 271 551 l 138 551 z "},"„":{"ha":407,"x_min":138,"x_max":271,"o":"m 138 551 l 138 675 l 271 675 l 271 551 l 138 551 z "},"•":{"ha":407,"x_min":138,"x_max":271,"o":"m 138 551 l 138 675 l 271 675 l 271 551 l 138 551 z "},"…":{"ha":407,"x_min":138,"x_max":271,"o":"m 138 551 l 138 675 l 271 675 l 271 551 l 138 551 z "}," ":{"ha":212,"x_min":0,"x_max":0,"o":""},"‹":{"ha":407,"x_min":138,"x_max":271,"o":"m 138 551 l 138 675 l 271 675 l 271 551 l 138 551 z "},"›":{"ha":407,"x_min":138,"x_max":271,"o":"m 138 551 l 138 675 l 271 675 l 271 551 l 138 551 z "}," ":{"ha":265,"x_min":0,"x_max":0,"o":""},"€":{"ha":407,"x_min":138,"x_max":271,"o":"m 138 551 l 138 675 l 271 675 l 271 551 l 138 551 z "},"™":{"ha":407,"x_min":138,"x_max":271,"o":"m 138 551 l 138 675 l 271 675 l 271 551 l 138 551 z "},"◼":{"ha":944,"x_min":0,"x_max":945,"o":"m 0 0 l 0 945 l 945 945 l 945 0 l 0 0 z "},"ﬁ":{"ha":1727,"x_min":37,"x_max":1630,"o":"m 37 947 l 1031 947 l 1031 628 q 850 697 936 682 q 571 711 765 711 l 571 536 l 949 536 l 949 325 l 571 325 l 571 0 l 97 0 l 97 629 q 85 804 97 728 q 37 947 73 880 m 1096 947 l 1630 947 l 1630 0 l 1156 0 l 1156 629 q 1096 947 1156 831 z "},"ﬂ":{"ha":2056,"x_min":37,"x_max":2042,"o":"m 37 947 l 1031 947 l 1031 628 q 850 697 936 682 q 571 711 765 711 l 571 536 l 949 536 l 949 325 l 571 325 l 571 0 l 97 0 l 97 629 q 85 804 97 728 q 37 947 73 880 m 1096 947 l 1628 947 l 1628 212 l 1758 212 q 1883 231 1824 212 q 2042 296 1942 249 l 2042 0 l 1156 0 l 1156 629 q 1143 803 1156 725 q 1096 947 1131 880 z "}}}
